<svg xmlns="http://www.w3.org/2000/svg" xmlns:svg="http://www.w3.org/2000/svg" id="svg10" width="32" height="32" version="1.1" viewBox="0 0 32 32"><metadata id="metadata16"/><rect style="opacity:1;fill:#0082c9;fill-opacity:1;stroke:none;stroke-width:2.10157585;stroke-linecap:square;stroke-linejoin:bevel;stroke-miterlimit:4;stroke-dasharray:none;stroke-dashoffset:0;stroke-opacity:1;paint-order:normal" id="rect823" width="32" height="31.864" x="0" y=".136" ry="4.552"/><g id="g8" clip-path="none" transform="matrix(0.85032777,0,0,0.85032777,-18.936831,-1.6887208)" style="fill:#fff"><path style="fill:#fff;stroke-width:1" id="path2" d="m 41.245618,5.6863525 c 0.94487,0 3.9911,7.9918995 4.755499,8.5751995 0.764411,0.5833 8.942701,1.1565 9.2346,2.1003 0.291981,0.9438 -6.0036,6.4562 -6.295599,7.400001 -0.291981,0.943799 2.3984,9.2899 1.633899,9.8732 -0.763999,0.583 -8.382999,-4.002001 -9.327999,-4.002001 -0.94487,0 -8.5641,4.585001 -9.3285,4.001701 -0.7644,-0.584001 1.9259,-8.929701 1.6339,-9.8735 -0.292,-0.943801 -6.5875,-6.456201 -6.2956,-7.400001 0.292,-0.9438 8.4702,-1.517 9.2342,-2.1003 0.765,-0.5833 3.810999,-8.5751995 4.756,-8.5751995 z"/></g></svg>